<svg width="198" height="34" viewBox="0 0 198 34" fill="none" xmlns="http://www.w3.org/2000/svg">
<path d="M0 34.0003H12.8695V24.499C12.8695 22.4853 14.429 20.8543 16.3546 20.8543C18.2801 20.8543 19.8397 22.4853 19.8397 24.499V34.0003H32.5088V0C14.5546 0 0 15.2211 0 34.0003Z" fill="#CDA274"/>
<path d="M43.9064 31V30.6L44.7064 30.28C45.2397 30.0933 45.5864 29.84 45.7464 29.52C45.9331 29.2 46.0264 28.7733 46.0264 28.24V7.36C46.0264 6.82667 45.9464 6.4 45.7864 6.08C45.6264 5.76 45.2664 5.50667 44.7064 5.32L43.9064 5V4.6H54.1864V5L53.3864 5.32C52.8531 5.50667 52.4931 5.76 52.3064 6.08C52.1464 6.4 52.0664 6.82667 52.0664 7.36V28.24C52.0664 28.7733 52.1464 29.2 52.3064 29.52C52.4931 29.8133 52.8531 30.0667 53.3864 30.28L54.1864 30.6V31H43.9064Z" fill="black"/>
<path d="M56.2576 31V30.6L56.8176 30.44C57.751 30.1733 58.2176 29.52 58.2176 28.48V15.96C58.2176 15.3733 58.1243 14.9467 57.9376 14.68C57.751 14.3867 57.391 14.1867 56.8576 14.08L56.2576 13.92V13.52L63.0976 11.2L63.4976 11.6L63.8176 14C64.751 13.1733 65.8043 12.4933 66.9776 11.96C68.151 11.4267 69.311 11.16 70.4576 11.16C72.2176 11.16 73.5643 11.64 74.4976 12.6C75.4576 13.56 75.9376 15.0267 75.9376 17V28.52C75.9376 29.56 76.4443 30.2133 77.4576 30.48L77.8176 30.6V31H68.3776V30.6L68.8976 30.44C69.831 30.1467 70.2976 29.4933 70.2976 28.48V15.72C70.2976 14.0133 69.4443 13.16 67.7376 13.16C66.5643 13.16 65.2843 13.7467 63.8976 14.92V28.52C63.8976 29.56 64.3643 30.2133 65.2976 30.48L65.6576 30.6V31H56.2576Z" fill="black"/>
<path d="M87.1873 31.6C85.4807 31.6 84.1473 31.1733 83.1873 30.32C82.254 29.4667 81.7873 28.1067 81.7873 26.24V12.56H79.0273V12.16L79.9873 12C80.814 11.8133 81.5207 11.5467 82.1073 11.2C82.7207 10.8533 83.3207 10.3867 83.9073 9.8L87.1873 6.16H87.5873L87.4673 11.76H91.9473V12.56H87.4273V26.96C87.4273 27.8933 87.6273 28.6 88.0273 29.08C88.454 29.56 88.9873 29.8 89.6273 29.8C90.1873 29.8 90.6807 29.6667 91.1073 29.4C91.534 29.1067 91.9607 28.72 92.3873 28.24L92.7873 28.64C92.254 29.5467 91.5207 30.2667 90.5873 30.8C89.654 31.3333 88.5207 31.6 87.1873 31.6Z" fill="black"/>
<path d="M104.363 11.16C106.097 11.16 107.577 11.52 108.803 12.24C110.03 12.9333 110.963 13.8933 111.603 15.12C112.27 16.32 112.603 17.6933 112.603 19.24C112.603 19.5333 112.59 19.84 112.563 20.16C112.537 20.4533 112.483 20.72 112.403 20.96H100.483C100.51 23.84 101.017 25.92 102.003 27.2C103.017 28.4533 104.51 29.08 106.483 29.08C107.817 29.08 108.897 28.8667 109.723 28.44C110.55 28.0133 111.323 27.3867 112.043 26.56L112.443 26.92C111.617 28.3867 110.51 29.5333 109.123 30.36C107.763 31.1867 106.123 31.6 104.203 31.6C102.31 31.6 100.63 31.2 99.1633 30.4C97.6966 29.5733 96.5499 28.4 95.7233 26.88C94.8966 25.36 94.4833 23.5467 94.4833 21.44C94.4833 19.2533 94.9633 17.4 95.9233 15.88C96.8833 14.3333 98.1099 13.16 99.6033 12.36C101.123 11.56 102.71 11.16 104.363 11.16ZM104.243 11.96C103.47 11.96 102.803 12.2 102.243 12.68C101.71 13.1333 101.283 13.96 100.963 15.16C100.67 16.3333 100.51 18 100.483 20.16H107.323C107.59 17.2533 107.483 15.16 107.003 13.88C106.523 12.6 105.603 11.96 104.243 11.96Z" fill="black"/>
<path d="M114.997 31V30.6L115.597 30.44C116.13 30.28 116.49 30.04 116.677 29.72C116.89 29.4 116.997 28.9867 116.997 28.48V15.96C116.997 15.3733 116.89 14.9467 116.677 14.68C116.49 14.3867 116.13 14.1867 115.597 14.08L114.997 13.92V13.52L121.877 11.2L122.277 11.6L122.637 15.04V15.36C123.01 14.6133 123.49 13.9333 124.077 13.32C124.69 12.68 125.357 12.16 126.077 11.76C126.823 11.36 127.557 11.16 128.277 11.16C129.29 11.16 130.063 11.44 130.597 12C131.13 12.56 131.397 13.2667 131.397 14.12C131.397 15.0267 131.13 15.7333 130.597 16.24C130.09 16.72 129.477 16.96 128.757 16.96C127.637 16.96 126.65 16.4 125.797 15.28L125.717 15.2C125.45 14.8267 125.143 14.6267 124.797 14.6C124.45 14.5467 124.13 14.7067 123.837 15.08C123.57 15.32 123.343 15.6133 123.157 15.96C122.997 16.28 122.837 16.6533 122.677 17.08V28.24C122.677 29.3067 123.143 29.9733 124.077 30.24L125.357 30.6V31H114.997Z" fill="black"/>
<path d="M133.053 31V30.6L133.613 30.44C134.546 30.1733 135.013 29.52 135.013 28.48V15.96C135.013 15.3733 134.92 14.9467 134.733 14.68C134.546 14.3867 134.186 14.1867 133.653 14.08L133.053 13.92V13.52L139.893 11.2L140.293 11.6L140.613 14C141.546 13.1733 142.6 12.4933 143.773 11.96C144.946 11.4267 146.106 11.16 147.253 11.16C149.013 11.16 150.36 11.64 151.293 12.6C152.253 13.56 152.733 15.0267 152.733 17V28.52C152.733 29.56 153.24 30.2133 154.253 30.48L154.613 30.6V31H145.173V30.6L145.693 30.44C146.626 30.1467 147.093 29.4933 147.093 28.48V15.72C147.093 14.0133 146.24 13.16 144.533 13.16C143.36 13.16 142.08 13.7467 140.693 14.92V28.52C140.693 29.56 141.16 30.2133 142.093 30.48L142.453 30.6V31H133.053Z" fill="black"/>
<path d="M166.698 31.6C164.671 31.6 162.911 31.1867 161.418 30.36C159.925 29.5067 158.765 28.3067 157.938 26.76C157.138 25.2133 156.738 23.4 156.738 21.32C156.738 19.24 157.165 17.44 158.018 15.92C158.898 14.4 160.085 13.2267 161.578 12.4C163.098 11.5733 164.805 11.16 166.698 11.16C168.591 11.16 170.285 11.5733 171.778 12.4C173.271 13.2 174.445 14.36 175.298 15.88C176.178 17.4 176.618 19.2133 176.618 21.32C176.618 23.4267 176.205 25.2533 175.378 26.8C174.578 28.32 173.431 29.5067 171.938 30.36C170.471 31.1867 168.725 31.6 166.698 31.6ZM166.698 30.8C167.631 30.8 168.378 30.5333 168.938 30C169.498 29.4667 169.898 28.52 170.138 27.16C170.405 25.8 170.538 23.88 170.538 21.4C170.538 18.8933 170.405 16.96 170.138 15.6C169.898 14.24 169.498 13.2933 168.938 12.76C168.378 12.2267 167.631 11.96 166.698 11.96C165.765 11.96 165.005 12.2267 164.418 12.76C163.858 13.2933 163.445 14.24 163.178 15.6C162.938 16.96 162.818 18.8933 162.818 21.4C162.818 23.88 162.938 25.8 163.178 27.16C163.445 28.52 163.858 29.4667 164.418 30C165.005 30.5333 165.765 30.8 166.698 30.8Z" fill="black"/>
<path d="M187.455 31.72C185.988 31.72 184.495 31.5333 182.975 31.16C181.455 30.8133 180.188 30.3467 179.175 29.76L179.375 24.32H179.775L181.015 26.92C181.388 27.6667 181.788 28.3333 182.215 28.92C182.641 29.48 183.228 29.92 183.975 30.24C184.508 30.5067 185.015 30.6933 185.495 30.8C186.001 30.88 186.561 30.92 187.175 30.92C188.801 30.92 190.081 30.48 191.015 29.6C191.975 28.72 192.455 27.5867 192.455 26.2C192.455 24.8933 192.135 23.88 191.495 23.16C190.855 22.4133 189.828 21.6933 188.415 21L186.775 20.28C184.481 19.2667 182.682 18.1067 181.375 16.8C180.095 15.4667 179.455 13.7067 179.455 11.52C179.455 9.94667 179.855 8.58667 180.655 7.44C181.481 6.29333 182.615 5.41333 184.055 4.8C185.521 4.18667 187.228 3.88 189.175 3.88C190.588 3.88 191.922 4.06667 193.175 4.44C194.455 4.81333 195.561 5.32 196.495 5.96L196.255 10.76H195.855L194.215 7.76C193.761 6.82666 193.308 6.17333 192.855 5.8C192.401 5.4 191.882 5.12 191.295 4.96C190.948 4.85333 190.628 4.78667 190.335 4.76C190.041 4.70667 189.668 4.68 189.215 4.68C187.855 4.68 186.708 5.08 185.775 5.88C184.841 6.65333 184.375 7.70667 184.375 9.04C184.375 10.4 184.735 11.4933 185.455 12.32C186.175 13.12 187.228 13.84 188.615 14.48L190.455 15.28C193.015 16.4 194.855 17.6 195.975 18.88C197.095 20.1333 197.655 21.76 197.655 23.76C197.655 26.1067 196.761 28.0267 194.975 29.52C193.215 30.9867 190.708 31.72 187.455 31.72Z" fill="black"/>
</svg>
